<?xml version="1.0" encoding="UTF-8"?>
<svg width="474px" height="474px" viewBox="0 0 474 474" version="1.1" xmlns="http://www.w3.org/2000/svg" xmlns:xlink="http://www.w3.org/1999/xlink">
    <!-- Generator: Sketch 51.2 (57519) - http://www.bohemiancoding.com/sketch -->
    <title>download-fill-icon</title>
    <desc>Created with Sketch.</desc>
    <defs></defs>
    <g id="Page-1" stroke="none" stroke-width="1" fill="none" fill-rule="evenodd">
        <g id="download-fill-icon" fill-rule="nonzero">
            <path d="M0,236.842 C0,106.024 106.036,0 236.835,0 C367.642,0 473.677,106.024 473.677,236.842 C473.677,367.634 367.641,473.677 236.835,473.677 C106.036,473.677 0,367.634 0,236.842 Z" id="Shape" fill="#DD0000"></path>
            <g id="Group" transform="translate(104.000000, 96.000000)" fill="#FFFFFF">
                <path d="M243.915,185.983 C243.915,200.059 243.915,214.131 243.915,228.21 C172.242,228.21 100.566,228.21 28.897,228.21 C28.897,214.202 28.897,200.193 28.897,186.185 C28.897,168.074 0.843,167.913 0.843,185.983 C0.843,204.7 0.843,223.416 0.843,242.136 C0.843,246.003 2.167,249.002 4.182,251.231 C6.411,254.2 9.904,256.264 14.769,256.264 C95.794,256.264 176.82,256.264 257.841,256.264 C261.708,256.264 264.707,254.94 266.936,252.925 C269.909,250.696 271.973,247.2 271.973,242.335 C271.973,223.618 271.973,204.902 271.973,186.182 C271.969,168.074 243.915,167.913 243.915,185.983 Z" id="Shape"></path>
                <path d="M199.279,91.027 C183.879,91.027 168.484,91.027 153.084,91.027 C153.084,67.707 153.084,44.387 153.084,21.071 C153.084,-6.097 111.006,-6.336 111.006,20.768 C111.006,44.189 111.006,67.606 111.006,91.027 C96.208,91.027 81.411,91.027 66.614,91.027 C66.341,91.031 66.072,91.057 65.806,91.098 C62.904,91.349 61.023,93.091 60.185,95.294 C59.097,97.478 59.123,100.144 61.041,102.455 C61.258,102.754 61.501,103.027 61.766,103.285 C83.822,125.326 105.867,147.375 127.915,169.419 C130.63,172.13 135.144,172.059 137.832,169.367 C159.959,147.236 182.082,125.105 204.209,102.975 C208.494,98.693 205.345,91.027 199.279,91.027 Z" id="Shape"></path>
            </g>
        </g>
    </g>
</svg>