<?xml version="1.0" encoding="UTF-8"?>
<svg width="474px" height="474px" viewBox="0 0 474 474" version="1.1" xmlns="http://www.w3.org/2000/svg" xmlns:xlink="http://www.w3.org/1999/xlink">
    <!-- Generator: Sketch 51.2 (57519) - http://www.bohemiancoding.com/sketch -->
    <title>download-fill-icon</title>
    <desc>Created with Sketch.</desc>
    <defs></defs>
    <g id="Page-1" stroke="none" stroke-width="1" fill="none" fill-rule="evenodd">
        <g id="download-fill-icon" fill-rule="nonzero">
            <path d="M0,236.842 C0,106.024 106.036,0 236.835,0 C367.642,0 473.677,106.024 473.677,236.842 C473.677,367.634 367.641,473.677 236.835,473.677 C106.036,473.677 0,367.634 0,236.842 Z" id="Shape" fill="#DD0000"></path>
            <path d="M225.036958,146 L225,246.247406 C225,250.0537 226.342318,253.691936 228.729812,256.37839 L292.444109,328.079 L310.445663,307.817032 L250.460439,240.313746 L250.497397,146 L225.036958,146 Z" id="Shape" fill="#FFFFFF"></path>
            <path d="M250.500278,62 C160.754047,62 86.4778074,127.344259 74.0378531,212.000104 L21,212.000104 L84.7499537,274.500026 L148.499907,212.000104 L99.8031571,212.000104 C112.001034,141.171842 174.835981,87.0002592 250.500278,87.0002592 C334.868989,87.0002592 403.500463,154.285257 403.500463,237.000363 C403.500463,319.715469 334.869729,387.000467 250.500278,387.000467 C203.073877,387.000467 159.096522,365.955715 129.848119,329.260943 L109.752011,344.641698 C143.867868,387.439564 195.166763,412 250.500278,412 C348.926493,412 429,333.484264 429,237.000363 C429,140.516462 348.926493,62.0007258 250.500278,62 Z" id="Shape" fill="#FFFFFF"></path>
        </g>
    </g>
</svg>